<?xml version="1.0" standalone="no"?><!DOCTYPE svg PUBLIC "-//W3C//DTD SVG 1.1//EN" "http://www.w3.org/Graphics/SVG/1.1/DTD/svg11.dtd"><svg class="icon" width="200px" height="200.00px" viewBox="0 0 1024 1024" version="1.1" xmlns="http://www.w3.org/2000/svg"><path d="M512 218.763636C351.418182 218.763636 218.763636 351.418182 218.763636 512S351.418182 805.236364 512 805.236364 805.236364 672.581818 805.236364 512 672.581818 218.763636 512 218.763636z m0 551.563637c-141.963636 0-258.327273-116.363636-258.327273-258.327273s116.363636-258.327273 258.327273-258.327273 258.327273 116.363636 258.327273 258.327273-116.363636 258.327273-258.327273 258.327273z"  /><path d="M649.309091 495.709091h-121.018182v-121.018182c0-9.309091-6.981818-18.618182-18.618182-18.618182s-18.618182 6.981818-18.618182 18.618182v121.018182h-121.018181c-9.309091 0-18.618182 6.981818-18.618182 18.618182s6.981818 18.618182 18.618182 18.618182h121.018181v121.018181c0 9.309091 6.981818 18.618182 18.618182 18.618182s18.618182-6.981818 18.618182-18.618182v-121.018181h121.018182c9.309091 0 18.618182-6.981818 18.618182-18.618182s-9.309091-18.618182-18.618182-18.618182z"  /></svg>