<?xml version="1.0" standalone="no"?><!DOCTYPE svg PUBLIC "-//W3C//DTD SVG 1.1//EN"
  "http://www.w3.org/Graphics/SVG/1.1/DTD/svg11.dtd">
<svg class="icon" width="200px" height="200.00px" viewBox="0 0 1024 1024" version="1.1"
     xmlns="http://www.w3.org/2000/svg">
  <path
    d="M897.024 484.864l-365.568-365.568c-12.288-12.288-32.256-12.288-44.544 0L121.344 484.864c-19.968 19.968-5.632 53.76 22.016 53.76h87.552v342.528c0 17.408 13.824 31.232 31.232 31.232h126.464c17.408 0 31.232-13.824 31.232-31.232v-219.648c0-17.408 13.824-31.232 31.232-31.232h115.712c17.408 0 31.232 13.824 31.232 31.232v219.648c0 17.408 13.824 31.232 31.232 31.232h126.464c17.408 0 31.232-13.824 31.232-31.232v-342.528h87.552c28.16-0.512 42.496-34.304 22.528-53.76z" fill="#7f7f7f"/>
</svg>
