<?xml version="1.0" standalone="no"?><!DOCTYPE svg PUBLIC "-//W3C//DTD SVG 1.1//EN"
  "http://www.w3.org/Graphics/SVG/1.1/DTD/svg11.dtd">
<svg class="icon" width="70px" height="70.00px" viewBox="0 0 1024 1024" version="1.1"
     xmlns="http://www.w3.org/2000/svg">
  <path
    d="M523.81 117.87c-15.91 15.91-15.91 41.62 0 57.53l296.74 296.75H105.01c-22.46 0-40.69 18.23-40.69 40.68 0 22.46 18.23 40.69 40.69 40.69h715.55L523.81 850.26c-15.91 15.91-15.91 41.63 0 57.53 15.91 15.91 41.62 15.91 57.53 0L947.5 541.6c3.79-3.74 6.75-8.26 8.83-13.27a40.04 40.04 0 0 0 3.13-15.5c0-5.29-1.06-10.58-3.13-15.54-2.08-5.01-5.05-9.48-8.83-13.27L581.35 117.83c-15.92-15.87-41.63-15.87-57.54 0.04z" fill="#777777"/>
</svg>
