<?xml version="1.0" standalone="no"?><!DOCTYPE svg PUBLIC "-//W3C//DTD SVG 1.1//EN" "http://www.w3.org/Graphics/SVG/1.1/DTD/svg11.dtd"><svg class="icon" width="200px" height="200.00px" viewBox="0 0 1024 1024" version="1.1" xmlns="http://www.w3.org/2000/svg"><path d="M746.954667 170.730667l32.874666 66.613333L853.333333 248.021333l-53.194666 51.84 12.565333 73.216-65.749333-34.56-65.749334 34.56 12.565334-73.216-53.194667-51.84 73.504-10.666666z" fill="#E39C26" /><path d="M853.333333 248.021333l-45.418666-6.602666-36.64 35.648a13.333333 13.333333 0 0 0-3.936 11.136l2.88 23.648a2.666667 2.666667 0 0 1-3.754667 2.741333l-21.685333-9.994667a13.301333 13.301333 0 0 0-11.829334 0.352L688.853333 328.533333l-7.637333 44.544 65.738667-34.56 65.749333 34.56-12.554667-73.216L853.333333 248.021333z" fill="#DF751B" /><path d="M351.893333 768.064h-29.834666l-12.714667 85.333333h32z" fill="#1D3285" /><path d="M322.058667 768.064H192l-21.333333 85.333333h138.677333z" fill="#2947AB" /><path d="M546.656 700.458667h-32l-13.301333 152.938666h32z" fill="#1D3285" /><path d="M514.645333 700.458667H360.266667l-18.922667 152.938666h160z" fill="#2947AB" /><path d="M673.386667 608.053333h-32l-12.021334 245.344h32z" fill="#1D3285" /><path d="M641.386667 608.053333h-86.688l-21.344 245.344h96z" fill="#2947AB" /><path d="M810.688 418.389333h-32l21.333333 435.008h32z" fill="#1D3285" /><path d="M778.688 418.389333h-96l-21.333333 435.008h138.666666z" fill="#2947AB" /><path d="M294.485333 395.2l0.629334 18.261333a5.013333 5.013333 0 0 0 4.874666 4.842667l5.930667 0.170667a5.013333 5.013333 0 0 0 5.130667-4.501334l1.984-18.773333h-18.549334zM565.226667 260.618667l-10.485334 15.136 15.050667 9.738666 8.512-17.045333a5.013333 5.013333 0 0 0-1.877333-6.528l-4.469334-2.730667a5.013333 5.013333 0 0 0-6.741333 1.429334" fill="#E6C1BD" /><path d="M314.282667 395.2l10.570666-82.016a9.28 9.28 0 0 1 7.893334-8l21.002666-3.008a9.354667 9.354667 0 0 1 10.602667 10.474667l-15.626667 120.746666 98.346667 13.397334 19.584-88.682667a6.272 6.272 0 0 1 10.752-2.901333l19.317333 20.938666a18.517333 18.517333 0 0 0 30.08-4.085333l44.181334-85.802667-17.546667-11.349333-43.264 65.344a2.816 2.816 0 0 1-4.714667-0.042667l-20.288-31.893333a43.936 43.936 0 0 0-18.368-16.170667l-59.36-27.872a49.578667 49.578667 0 0 0-32.533333-3.370666l-66.122667 15.701333a18.912 18.912 0 0 0-14.549333 18.218667l-1.002667 100.373333h21.045334z" fill="#7598D9" /><path d="M348.725333 433.397333l-50.453333 132.266667c-1.717333 4.490667-4.8 8.341333-8.810667 10.986667L199.936 635.733333l10.421333 32.234667 113.749334-60.949333a80.234667 80.234667 0 0 0 27.968-24.874667l52.16-74.837333a11.488 11.488 0 0 1 12.693333-4.437334l69.205333 20.544c6.688 1.984 10.08 9.44 7.168 15.786667l-39.178666 85.504 27.658666 19.072 65.141334-119.573333a22.944 22.944 0 0 0-9.728-31.445334l-90.112-45.952-98.357334-13.397333z" fill="#B1CDFC" /><path d="M410.538667 265.728c22.677333-5.738667 19.072-19.093333 19.072-19.093333l41.653333 21.888s-13.322667 5.226667-9.6 21.226666c-20.16 21.450667-51.125333-24.021333-51.125333-24.021333" fill="#E6C1BD" /><path d="M433.44 251.488s18.090667 12.8 37.824 17.034667c19.125333 4.341333 18.848-3.861333 20.394667-18.848 2.058667 0.64 6.826667 0.042667 8.672-1.525334 2.026667-1.706667-3.392-16-3.626667-20.48-0.288-4.906667 1.397333-12.874667 1.461333-17.792 0.128-9.450667-5.909333-23.765333-23.114666-29.866666-21.536-7.637333-50.336 4.618667-54.56 29.226666-4.192 24.384 12.949333 42.250667 12.949333 42.250667" fill="#E6C1BD" /><path d="M500.117333 210.389333s-6.954667 2.037333-19.146666-0.821333c-12.202667-2.88-16.501333 16.736-16.501334 16.736s-11.605333 15.477333-42.208 12.789333c-11.712-27.253333-7.68-39.146667-0.021333-49.408 3.968-5.322667 11.925333-11.925333 23.274667-11.114666 6.485333-7.168 18.645333-9.685333 28.842666-6.624 35.968 10.837333 25.76 38.442667 25.76 38.442666" fill="#2947AB" /><path d="M447.317333 230.421333c-2.304 6.954667-0.266667 13.898667 4.554667 15.498667 4.821333 1.6 10.613333-2.741333 12.906667-9.706667 2.325333-6.944 0.288-13.888-4.544-15.488-4.821333-1.610667-10.602667 2.741333-12.917334 9.696" fill="#E6C1BD" /><path d="M216.938667 705.578667c-1.664-12.224-2.858667-28.181333-0.458667-40.896-13.152-14.624-12.458667-31.648-12.458667-31.648s-12.832 5.610667-28.597333 8.192a5.717333 5.717333 0 0 0-4.48 7.413333l23.744 72.736a5.76 5.76 0 0 0 5.685333 3.968 17.429333 17.429333 0 0 0 16.565334-19.765333M506.592 673.824c-8.042667-9.365333-17.728-22.08-22.634667-34.069333-18.986667-5.12-27.669333-19.776-27.669333-19.776s-7.712 11.68-19.541333 22.421333a5.696 5.696 0 0 0 0.288 8.64l59.477333 48.138667c2.005333 1.621333 4.832 1.706667 6.933333 0.224a17.397333 17.397333 0 0 0 3.146667-25.578667" fill="#85ABEF" /><path d="M598.72 170.666667l10.197333 21.333333-10.186666 21.333333 21.333333-10.186666 21.333333 10.186666-10.197333-21.333333 10.197333-21.333333-21.333333 10.186666z" fill="#DF751B" /><path d="M544.704 401.397333l10.186667 21.333334-10.186667 21.333333 21.333333-10.186667 21.333334 10.186667-10.197334-21.333333 10.197334-21.333334-21.333334 10.186667z" fill="#DD4A11" /><path d="M282.432 670.549333l10.186667 21.333334-10.186667 21.333333 21.333333-10.186667 21.333334 10.186667-10.186667-21.333333 10.186667-21.333334-21.333334 10.186667z" fill="#DF751B" /><path d="M170.666667 508.010667l10.186666 21.333333-10.186666 21.333333 21.333333-10.186666 21.333333 10.186666-10.186666-21.333333 10.186666-21.333333-21.333333 10.186666z" fill="#DD4A11" /><path d="M213.333333 321.173333l10.197334 21.333334-10.186667 21.333333 21.333333-10.176 21.333334 10.186667-10.197334-21.333334 10.197334-21.333333-21.333334 10.186667z" fill="#DF751B" /></svg>