<?xml version="1.0" standalone="no"?><!DOCTYPE svg PUBLIC "-//W3C//DTD SVG 1.1//EN"
  "http://www.w3.org/Graphics/SVG/1.1/DTD/svg11.dtd">
<svg class="icon" width="200px" height="191.04px" viewBox="0 0 1072 1024" version="1.1"
     xmlns="http://www.w3.org/2000/svg">
  <path
    d="M536.380952 1024c-19.504762 0-39.009524-9.752381-51.2-24.380952L73.142857 509.561905c-2.438095-2.438095-4.87619-4.87619-4.87619-7.314286-2.438095-2.438095-4.87619-7.314286-7.314286-9.752381l-9.752381-9.752381c-4.87619-4.87619-7.314286-12.190476-9.752381-17.066667C24.380952 436.419048 12.190476 404.72381 4.87619 370.590476c-2.438095-21.942857-4.87619-43.885714-4.87619-63.390476C0 136.533333 131.657143 0 295.009524 0c97.52381 0 187.733333 51.2 241.371428 131.657143C590.019048 51.2 680.228571 0 777.752381 0 941.104762 0 1072.761905 136.533333 1072.761905 307.2c0 21.942857-2.438095 41.447619-4.876191 60.952381-7.314286 34.133333-19.504762 65.828571-36.571428 97.523809l-7.314286 14.628572-14.628571 17.066667-4.876191 4.87619-7.314286 7.314286L587.580952 999.619048c-12.190476 14.628571-31.695238 24.380952-51.2 24.380952zM136.533333 431.542857L536.380952 909.409524l402.285715-480.304762c17.066667-24.380952 26.819048-51.2 34.133333-78.019048 2.438095-14.628571 4.87619-29.257143 4.87619-43.885714C975.238095 192.609524 887.466667 97.52381 777.752381 97.52381c-87.771429 0-165.790476 60.952381-190.171429 151.161904-4.87619 21.942857-26.819048 36.571429-48.761904 36.571429h-9.752381c-21.942857 0-41.447619-14.628571-46.32381-36.571429C458.361905 160.914286 380.342857 97.52381 292.571429 97.52381c-107.27619 0-195.047619 92.647619-195.047619 209.67619 0 14.628571 2.438095 29.257143 4.87619 43.885714 4.87619 26.819048 17.066667 56.07619 34.133333 80.457143z"/>
</svg>
