<?xml version="1.0" standalone="no"?><!DOCTYPE svg PUBLIC "-//W3C//DTD SVG 1.1//EN" "http://www.w3.org/Graphics/SVG/1.1/DTD/svg11.dtd"><svg class="icon" width="200px" height="200.00px" viewBox="0 0 1024 1024" version="1.1" xmlns="http://www.w3.org/2000/svg"><path d="M395.636364 512m-34.909091 0a34.909091 34.909091 0 1 0 69.818182 0 34.909091 34.909091 0 1 0-69.818182 0Z"  /><path d="M512 512m-34.909091 0a34.909091 34.909091 0 1 0 69.818182 0 34.909091 34.909091 0 1 0-69.818182 0Z"  /><path d="M628.363636 512m-34.909091 0a34.909091 34.909091 0 1 0 69.818182 0 34.909091 34.909091 0 1 0-69.818182 0Z"  /><path d="M512 809.890909C349.090909 809.890909 216.436364 674.909091 216.436364 512S349.090909 216.436364 512 216.436364 809.890909 349.090909 809.890909 512c0 55.854545-16.290909 111.709091-46.545454 158.254545l37.236363 137.309091-141.963636-37.236363c-44.218182 25.6-95.418182 39.563636-146.618182 39.563636z m0-558.545454c-144.290909 0-262.981818 116.363636-262.981818 262.981818s116.363636 262.981818 262.981818 262.981818c46.545455 0 93.090909-13.963636 134.981818-37.236364l6.981818-4.654545 97.745455 25.6-25.6-93.090909 4.654545-6.981818c30.254545-44.218182 44.218182-93.090909 44.218182-146.618182 0-146.618182-118.690909-262.981818-262.981818-262.981818z"  /></svg>