<?xml version="1.0" standalone="no"?><!DOCTYPE svg PUBLIC "-//W3C//DTD SVG 1.1//EN"
  "http://www.w3.org/Graphics/SVG/1.1/DTD/svg11.dtd">
<svg class="icon" width="200px" height="200.00px" viewBox="0 0 1024 1024" version="1.1"
     xmlns="http://www.w3.org/2000/svg">
  <path
    d="M512 800.581818L237.381818 525.963636c-65.163636-65.163636-65.163636-169.890909 0-235.054545l18.618182-18.618182c65.163636-65.163636 169.890909-65.163636 235.054545 0l20.945455 20.945455 20.945455-20.945455c32.581818-32.581818 72.145455-48.872727 118.690909-48.872727s86.109091 16.290909 118.690909 48.872727l18.618182 18.618182c65.163636 65.163636 65.163636 169.890909 0 235.054545L512 800.581818z m-139.636364-542.254545c-34.909091 0-67.490909 13.963636-93.090909 39.563636l-18.618182 18.618182c-51.2 51.2-51.2 134.981818 0 186.181818L512 751.709091l251.345455-251.345455c51.2-51.2 51.2-134.981818 0-186.181818l-18.618182-18.618182c-25.6-25.6-58.181818-39.563636-93.090909-39.563636s-67.490909 13.963636-93.090909 39.563636l-46.545455 46.545455-46.545455-46.545455c-25.6-23.272727-58.181818-37.236364-93.090909-37.236363z" fill="red"/>
</svg>
