<?xml version="1.0" standalone="no"?><!DOCTYPE svg PUBLIC "-//W3C//DTD SVG 1.1//EN"
  "http://www.w3.org/Graphics/SVG/1.1/DTD/svg11.dtd">
<svg class="icon" width="200px" height="200.00px" viewBox="0 0 1024 1024" version="1.1"
     xmlns="http://www.w3.org/2000/svg">
  <path
    d="M156.16 562.176l178.688 89.6c9.216 4.608 20.48 3.072 28.16-4.096l173.056-159.744c22.528-20.992 55.808 9.216 37.376 33.792l-81.92 109.056c-10.752 13.824-4.096 34.304 12.8 39.424l238.08 71.68c14.336 4.096 29.184-4.608 31.744-18.944l103.936-520.704c4.096-20.48-17.408-36.864-35.84-27.648L156.16 517.12c-18.432 9.216-18.432 35.84 0 45.056z m329.728 276.48l23.552-31.232c10.24-13.824 4.096-33.792-12.288-38.912l-23.552-7.68c-16.384-5.632-33.28 6.656-33.28 24.064v38.912c0 23.552 30.72 33.792 45.568 14.848z" fill="#7f7f7f"/>
</svg>
